# Blender v2.80 (sub 69) OBJ File: 'garden_bloc.blend'
# www.blender.org
mtllib garden_panel.mtl
o Cube
v -3.000000 0.000000 -3.000000
v -3.000000 5.000000 -3.000000
v -3.000000 0.000000 -3.400000
v -3.000000 5.000000 -3.400000
v 3.000000 0.000000 -3.000000
v 3.000000 5.000000 -3.000000
v 3.000000 0.000000 -3.400000
v 3.000000 5.000000 -3.400000
v -3.000000 0.166667 -3.000000
v -3.000000 4.833334 -3.000000
v -3.000000 4.833333 -3.400000
v -3.000000 0.166667 -3.400000
v 3.000000 4.833333 -3.400000
v 3.000000 0.166667 -3.400000
v 3.000000 4.833333 -3.000000
v 3.000000 0.166667 -3.000000
v 2.800000 0.000000 -3.400000
v -2.800000 0.000000 -3.400000
v -2.800000 5.000000 -3.400000
v 2.800000 5.000000 -3.400000
v -2.800000 0.000000 -3.000000
v 2.800000 0.000000 -3.000000
v 2.800000 5.000000 -3.000000
v -2.800000 5.000000 -3.000000
v 2.800000 0.166667 -3.000000
v -2.800000 0.166667 -3.000000
v 2.800000 4.833333 -3.000000
v -2.800000 4.833334 -3.000000
v -2.800000 0.166667 -3.400000
v 2.800000 0.166667 -3.400000
v -2.800000 4.833333 -3.400000
v 2.800000 4.833333 -3.400000
v 2.800000 0.166667 -3.133900
v -2.800000 0.166667 -3.133900
v 2.800000 4.833333 -3.133900
v -2.800000 4.833334 -3.133900
v -2.800000 0.166667 -3.292615
v 2.800000 0.166667 -3.292615
v -2.800000 4.833333 -3.292615
v 2.800000 4.833333 -3.292615
vt 0.541667 0.000000
vt 0.625000 0.000000
vt 0.625000 0.250000
vt 0.541667 0.250000
vt 0.541667 0.416667
vt 0.625000 0.416667
vt 0.625000 0.500000
vt 0.541667 0.500000
vt 0.625000 0.750000
vt 0.541667 0.750000
vt 0.541667 0.916667
vt 0.625000 0.916667
vt 0.625000 1.000000
vt 0.541667 1.000000
vt 0.291667 0.500000
vt 0.375000 0.500000
vt 0.375000 0.750000
vt 0.291667 0.750000
vt 0.791667 0.500000
vt 0.875000 0.500000
vt 0.875000 0.750000
vt 0.791667 0.750000
vt 0.375000 0.916667
vt 0.458333 0.916667
vt 0.458333 1.000000
vt 0.375000 1.000000
vt 0.458333 0.500000
vt 0.458333 0.750000
vt 0.375000 0.416667
vt 0.458333 0.416667
vt 0.375000 0.000000
vt 0.458333 0.000000
vt 0.458333 0.250000
vt 0.375000 0.250000
vt 0.541667 0.333333
vt 0.458333 0.333333
vt 0.458333 0.416667
vt 0.541667 0.416667
vt 0.375000 0.333333
vt 0.541667 0.833333
vt 0.458333 0.833333
vt 0.541667 0.916667
vt 0.541667 0.833333
vt 0.375000 0.833333
vt 0.708333 0.500000
vt 0.708333 0.750000
vt 0.125000 0.500000
vt 0.208333 0.500000
vt 0.208333 0.750000
vt 0.125000 0.750000
vt 0.625000 0.833333
vt 0.625000 0.333333
vt 0.458333 0.833333
vt 0.458333 0.916667
vt 0.541667 0.333333
vt 0.458333 0.333333
vn -1.0000 0.0000 0.0000
vn 0.0000 0.0000 -1.0000
vn 1.0000 0.0000 0.0000
vn 0.0000 0.0000 1.0000
vn 0.0000 -1.0000 0.0000
vn 0.0000 1.0000 0.0000
usemtl l
s off
f 10/1/1 2/2/1 4/3/1 11/4/1
f 32/5/2 20/6/2 8/7/2 13/8/2
f 13/8/3 8/7/3 6/9/3 15/10/3
f 28/11/4 24/12/4 2/13/4 10/14/4
f 17/15/5 7/16/5 5/17/5 22/18/5
f 19/19/6 4/20/6 2/21/6 24/22/6
f 21/23/4 26/24/4 9/25/4 1/26/4
f 26/24/4 28/11/4 10/14/4 9/25/4
f 7/16/3 14/27/3 16/28/3 5/17/3
f 14/27/3 13/8/3 15/10/3 16/28/3
f 17/29/2 30/30/2 14/27/2 7/16/2
f 30/30/2 32/5/2 13/8/2 14/27/2
f 1/31/1 9/32/1 12/33/1 3/34/1
f 9/32/1 10/1/1 11/4/1 12/33/1
f 12/33/2 11/4/2 31/35/2 29/36/2
f 32/5/1 30/30/1 38/37/1 40/38/1
f 3/34/2 12/33/2 29/36/2 18/39/2
f 18/39/2 29/36/2 30/30/2 17/29/2
f 16/28/4 15/10/4 27/40/4 25/41/4
f 27/40/5 28/11/5 36/42/5 35/43/5
f 5/17/4 16/28/4 25/41/4 22/44/4
f 22/44/4 25/41/4 26/24/4 21/23/4
f 8/7/6 20/45/6 23/46/6 6/9/6
f 20/45/6 19/19/6 24/22/6 23/46/6
f 3/47/5 18/48/5 21/49/5 1/50/5
f 18/48/5 17/15/5 22/18/5 21/49/5
f 15/10/4 6/9/4 23/51/4 27/40/4
f 27/40/4 23/51/4 24/12/4 28/11/4
f 11/4/2 4/3/2 19/52/2 31/35/2
f 31/35/2 19/52/2 20/6/2 32/5/2
f 26/24/6 25/41/6 33/53/6 34/54/6
f 25/41/1 27/40/1 35/43/1 33/53/1
f 28/11/3 26/24/3 34/54/3 36/42/3
f 31/35/5 32/5/5 40/38/5 39/55/5
f 30/30/6 29/36/6 37/56/6 38/37/6
f 29/36/3 31/35/3 39/55/3 37/56/3
usemtl ll
f 33/53/4 35/43/4 36/42/4 34/54/4
f 37/56/2 39/55/2 40/38/2 38/37/2
